:SAMPLES-PER-SECOND 30
:FRAME-RANGE 1-1770
:FULLY-SPECIFIED
:DEGREES
1605
root  -25.4364 39.5349 -72.0134 5.86978 4.29248 -1.59442
RightUpLeg  -7.50545 -0.938907 5.79353
RightLeg  14.0193 -1.11432 0.14198
RightFoot  -11.9329 -0.0923737 -2.26329
RightToes  -1.33073e-015 0 -3.6325e-017
Spine  -11.2049 -2.36564 2.6342
Spine1  11.5815 -2.98308 2.39826
HEad  22.2304 -8.66699 -10.6349
LeftShoulder1  1.35131 -1.25213 -23.6536
LeftArm  -7.3699 7.94643 -51.2322
LeftForeArm  33.6739 0.312296 -10.6485
LeftHand  -0.07107 4.20185 5.16092
RightShoulder  0.848286 -0.853796 28.4806
RightArm  -17.6949 0.354908 51.4977
RightForeArm  55.6299 7.00314 8.70339
RightHand  -0.321251 -3.33065 -17.6274
LeftUpLeg  -3.83044 6.8619 7.65776
LeftLeg  31.3451 7.66804 5.35573
LeftFoot  -10.0494 0.175178 -10.189
LeftToes  1.09107e-011 -1.16422e-010 2.98337e-011
1606
root  -25.4702 39.5068 -71.7425 5.86801 4.17804 -1.42242
RightUpLeg  -7.11189 -0.997697 5.7134
RightLeg  14.2139 -0.960152 0.0915031
RightFoot  -12.4704 -0.106455 -2.24641
RightToes  -1.33073e-015 0 -3.6325e-017
Spine  -10.759 -1.99244 3.25322
Spine1  11.4507 -2.50134 1.92398
HEad  22.2122 -8.40005 -10.549
LeftShoulder1  1.42079 -1.4908 -23.627
LeftArm  -6.74915 6.11209 -51.745
LeftForeArm  35.027 1.82397 -10.8512
LeftHand  -0.0554893 4.48163 4.51309
RightShoulder  1.01388 -0.359472 28.343
RightArm  -18.1175 2.46814 51.1293
RightForeArm  58.4551 0.855747 8.08558
RightHand  -0.260595 -3.78335 -18.1581
LeftUpLeg  -5.7637 6.22491 6.89523
LeftLeg  32.888 8.20745 6.02529
LeftFoot  -11.0404 0.0917626 -9.79092
LeftToes  1.09107e-011 -1.16422e-010 2.98337e-011
1607
root  -25.48 39.4886 -71.4506 5.91498 3.96332 -1.12085
RightUpLeg  -6.66247 -1.1492 5.43414
RightLeg  14.273 -0.589982 0.0973073
RightFoot  -13.0169 -0.118731 -2.10035
RightToes  -1.33073e-015 0 -3.6325e-017
Spine  -10.2348 -1.63655 3.58863
Spine1  11.1046 -2.03846 1.51569
HEad  22.339 -8.13234 -10.138
LeftShoulder1  1.42117 -1.51386 -23.486
LeftArm  -6.41894 5.07639 -52.1919
LeftForeArm  35.1467 2.6255 -10.9635
LeftHand  -0.0514982 4.42236 3.70206
RightShoulder  1.17048 0.120489 28.1224
RightArm  -19.3061 5.70087 51.106
RightForeArm  63.2975 -6.06633 6.622
RightHand  -0.141981 -4.54307 -17.9824
LeftUpLeg  -7.81228 5.00077 5.81807
LeftLeg  33.4699 8.99968 6.6997
LeftFoot  -11.7405 0.0381981 -9.17339
LeftToes  1.09107e-011 -1.16422e-010 2.98337e-011
1608
root  -25.4714 39.4827 -71.1357 6.01886 3.79291 -0.828186
RightUpLeg  -6.1881 -1.37246 5.10884
RightLeg  14.222 -0.207197 0.162721
RightFoot  -13.4568 -0.128609 -2.03748
RightToes  -1.33073e-015 0 -3.6325e-017
Spine  -9.6984 -1.28217 3.88738
Spine1  10.6537 -1.60443 1.15245
HEad  22.2671 -7.99731 -9.72007
LeftShoulder1  1.38184 -1.38711 -23.4411
LeftArm  -6.52377 4.76818 -52.5065
LeftForeArm  34.3041 2.88856 -10.9306
LeftHand  -0.0558129 4.17809 3.46469
RightShoulder  1.31957 0.588305 27.8666
RightArm  -22.4104 8.82055 51.2647
RightForeArm  72.3256 -5.40634 4.67998
RightHand  0.0433259 -5.80431 -16.275
LeftUpLeg  -10.0131 3.42116 4.74088
LeftLeg  33.4773 9.66551 7.16167
LeftFoot  -13.0514 -0.0513682 -8.65994
LeftToes  1.09107e-011 -1.16422e-010 2.98337e-011
1609
root  -25.4345 39.4716 -70.8185 6.17877 3.76035 -0.397217
RightUpLeg  -5.84766 -1.74161 4.57948
RightLeg  14.3825 0.220062 0.240819
RightFoot  -14.0214 -0.135915 -1.9141
RightToes  -1.33073e-015 0 -3.6325e-017
Spine  -9.12161 -0.841469 4.17352
Spine1  10.3115 -1.06868 0.748229
HEad  21.7396 -8.19588 -9.21753
LeftShoulder1  1.34805 -1.24764 -23.609
LeftArm  -6.54951 4.63548 -52.5672
LeftForeArm  33.3178 2.77696 -10.9359
LeftHand  -0.0620863 4.11789 3.93884
RightShoulder  1.45905 1.02687 27.6709
RightArm  -27.2006 10.6046 51.4679
RightForeArm  81.1734 -4.44701 1.15213
RightHand  0.234193 -7.53102 -13.8834
LeftUpLeg  -12.577 1.13501 3.5373
LeftLeg  33.2004 10.0538 7.35657
LeftFoot  -13.44 -0.0681585 -8.10073
LeftToes  1.09107e-011 -1.16422e-010 2.98337e-011
1610
root  -25.3776 39.4524 -70.477 6.25574 3.90259 0.0658569
RightUpLeg  -5.30679 -2.00884 4.05519
RightLeg  14.394 0.314967 0.157357
RightFoot  -14.662 -0.148034 -1.68664
RightToes  -1.33073e-015 0 -3.6325e-017
Spine  -8.43675 -0.301629 4.66976
Spine1  10.0622 -0.373738 0.0358129
HEad  20.8224 -8.79321 -8.34247
LeftShoulder1  1.30974 -1.11199 -23.6524
LeftArm  -6.3968 4.51488 -52.6658
LeftForeArm  32.8099 2.6874 -11.0015
LeftHand  -0.067755 4.06269 4.32398
RightShoulder  1.55011 1.32784 27.4538
RightArm  -31.3659 10.8697 51.6772
RightForeArm  85.0087 -3.75153 -1.92639
RightHand  0.391975 -9.25079 -12.6358
LeftUpLeg  -15.2625 -1.53125 2.46446
LeftLeg  32.6106 9.77879 7.02024
LeftFoot  -13.3383 -0.0500904 -7.44594
LeftToes  1.09107e-011 -1.16422e-010 2.98337e-011
1611
root  -25.3138 39.4348 -70.1039 6.36667 4.10526 0.535217
RightUpLeg  -4.70845 -2.23893 3.54434
RightLeg  14.3213 0.267974 0.0256488
RightFoot  -15.2541 -0.155765 -1.54026
RightToes  -1.33073e-015 0 -3.6325e-017
Spine  -7.87121 0.314792 5.17584
Spine1  9.94547 0.402221 -0.742466
HEad  19.7438 -9.65519 -7.29687
LeftShoulder1  1.23886 -0.853776 -23.7945
LeftArm  -6.23055 4.27987 -52.6068
LeftForeArm  32.9464 2.78293 -11.064
LeftHand  -0.0653253 4.24469 4.6884
RightShoulder  1.66002 1.69328 27.2119
RightArm  -33.6375 10.121 51.7015
RightForeArm  84.5134 -3.50609 -3.4663
RightHand  0.467801 -9.75964 -13.1783
LeftUpLeg  -17.9829 -3.54606 1.5931
LeftLeg  31.4783 9.05171 6.27357
LeftFoot  -13.273 -0.0421 -7.20207
LeftToes  1.09107e-011 -1.16422e-010 2.98337e-011
1612
root  -25.2379 39.4295 -69.6891 6.41248 4.23254 1.13782
RightUpLeg  -3.91839 -2.49626 2.86014
RightLeg  14.1843 0.379658 -0.105972
RightFoot  -15.8486 -0.158601 -1.30667
RightToes  -1.33073e-015 0 -3.6325e-017
Spine  -7.38079 0.957794 5.57179
Spine1  10.0406 1.26601 -1.73745
HEad  18.8571 -10.4238 -6.159
LeftShoulder1  1.1668 -0.594068 -23.9358
LeftArm  -6.00463 4.1742 -52.3646
LeftForeArm  33.0074 2.80433 -11.1578
LeftHand  -0.0615521 4.48418 4.87989
RightShoulder  1.7681 2.01423 27.2532
RightArm  -34.2269 9.20396 51.4158
RightForeArm  82.7577 -3.53471 -3.74566
RightHand  0.507126 -9.67527 -14.422
LeftUpLeg  -20.4024 -4.73562 0.645589
LeftLeg  29.4408 8.47179 5.47713
LeftFoot  -12.8374 -0.0143555 -6.97797
LeftToes  1.09107e-011 -1.16422e-010 2.98337e-011
1613
root  -25.1627 39.4057 -69.2306 6.55627 4.46191 1.6723
RightUpLeg  -3.13851 -2.75827 2.24453
RightLeg  14.0162 0.364451 -0.210791
RightFoot  -16.5196 -0.161652 -1.10418
RightToes  -1.33073e-015 0 -3.6325e-017
Spine  -6.7644 1.47254 5.67001
Spine1  9.68909 1.89876 -2.34201
HEad  18.4031 -10.7213 -5.66314
LeftShoulder1  1.09222 -0.315492 -24.1889
LeftArm  -5.79185 4.54 -51.9652
LeftForeArm  33.1588 2.96202 -11.2673
LeftHand  -0.0601021 4.38173 4.66895
RightShoulder  1.881 2.2833 27.6984
RightArm  -33.5623 8.04747 50.7796
RightForeArm  80.8251 -3.74106 -3.04456
RightHand  0.443353 -8.92503 -15.2852
LeftUpLeg  -22.6368 -5.13492 -0.20283
LeftLeg  26.4794 8.06829 4.67974
LeftFoot  -11.3419 0.067869 -6.45692
LeftToes  1.09107e-011 -1.16422e-010 2.98337e-011
1614
root  -25.0928 39.3858 -68.7271 6.82883 4.62457 2.30103
RightUpLeg  -2.36959 -2.98108 1.5465
RightLeg  13.7187 0.238333 -0.324084
RightFoot  -17.1089 -0.16749 -1.0279
RightToes  -1.33073e-015 0 -3.6325e-017
Spine  -6.53186 1.86159 5.27199
Spine1  9.67597 2.35979 -2.7071
HEad  18.2581 -10.5178 -5.47873
LeftShoulder1  1.03704 -0.111417 -24.3834
LeftArm  -5.6872 5.17488 -51.5168
LeftForeArm  33.11 3.1316 -11.347
LeftHand  -0.0571772 4.43739 4.63874
RightShoulder  2.00159 2.62132 27.828
RightArm  -31.8023 7.15421 50.5772
RightForeArm  79.2681 -4.05611 -1.61267
RightHand  0.374957 -8.28024 -15.8603
LeftUpLeg  -24.487 -4.89791 -1.1622
LeftLeg  22.3851 7.78754 3.83568
LeftFoot  -8.28811 0.192323 -5.35068
LeftToes  1.09107e-011 -1.16422e-010 2.98337e-011
1615
root  -25.0184 39.3511 -68.1604 7.05875 4.90958 2.80322
RightUpLeg  -1.34186 -2.9687 1.07123
RightLeg  13.2401 -0.169959 -0.573425
RightFoot  -17.6589 -0.171219 -0.938317
RightToes  -1.33073e-015 0 -3.6325e-017
Spine  -6.45306 1.99498 4.67266
Spine1  9.77247 2.53209 -2.88755
HEad  18.479 -9.65479 -5.5599
LeftShoulder1  1.00273 0.0146798 -24.5088
LeftArm  -5.54708 6.20698 -50.9982
LeftForeArm  33.4445 3.33412 -11.4573
LeftHand  -0.0535407 4.57487 4.715
RightShoulder  2.05524 2.73529 28.091
RightArm  -30.2461 6.98888 50.6638
RightForeArm  79.3697 -4.2468 -0.478598
RightHand  0.33682 -8.003 -15.8312
LeftUpLeg  -25.7416 -4.59148 -1.93072
LeftLeg  17.4136 7.91444 3.09525
LeftFoot  -5.02281 0.279627 -4.51926
LeftToes  1.09107e-011 -1.16422e-010 2.98337e-011
1616
root  -24.9245 39.3133 -67.5393 7.27576 5.19156 3.052
RightUpLeg  -0.107693 -3.02243 0.780491
RightLeg  12.485 -0.433691 -0.681075
RightFoot  -18.0649 -0.159244 -0.6307
RightToes  -1.33073e-015 0 -3.6325e-017
Spine  -6.49941 2.00622 4.1599
Spine1  9.90388 2.56565 -2.98461
HEad  18.847 -8.40564 -5.73156
LeftShoulder1  0.994061 0.0687883 -24.7619
LeftArm  -5.21112 7.27165 -50.171
LeftForeArm  33.6585 3.77956 -11.6216
LeftHand  -0.0563032 4.41988 4.33963
RightShoulder  2.0679 2.74806 28.2334
RightArm  -29.0468 7.37262 51.1091
RightForeArm  80.2138 -4.3432 0.297279
RightHand  0.357603 -8.21289 -15.5451
LeftUpLeg  -26.4356 -4.2379 -2.51143
LeftLeg  11.741 8.7137 2.67469
LeftFoot  -1.349 0.417797 -4.68599
LeftToes  1.09107e-011 -1.16422e-010 2.98337e-011
1617
root  -24.8093 39.2767 -66.8597 7.51443 5.31793 3.16522
RightUpLeg  1.29775 -3.0801 0.520162
RightLeg  11.4715 -0.438484 -0.653093
RightFoot  -18.3314 -0.152963 -0.474113
RightToes  -1.33073e-015 0 -3.6325e-017
Spine  -6.75129 1.98147 3.74864
Spine1  10.2232 2.63788 -3.26035
HEad  19.1102 -7.19145 -5.7013
LeftShoulder1  0.948331 0.224962 -24.8369
LeftArm  -5.15668 8.27922 -49.6687
LeftForeArm  34.0433 4.73085 -11.6972
LeftHand  -0.0448401 4.74222 4.12811
RightShoulder  2.08003 2.79499 28.1687
RightArm  -28.2853 8.16811 51.7657
RightForeArm  80.5957 -4.39619 0.705355
RightHand  0.359343 -8.15006 -15.9368
LeftUpLeg  -26.7553 -3.63278 -2.96551
LeftLeg  6.11786 9.63167 2.09817
LeftFoot  1.84811 0.415344 -3.68966
LeftToes  1.09107e-011 -1.16422e-010 2.98337e-011
1618
root  -24.6695 39.22 -66.1107 7.7066 5.25433 3.24866
RightUpLeg  2.74256 -3.07832 0.240004
RightLeg  10.6986 -0.27798 -0.654654
RightFoot  -18.6543 -0.133141 -0.108483
RightToes  -1.33073e-015 0 -3.6325e-017
Spine  -7.12266 2.00267 3.31511
Spine1  10.6283 2.81916 -3.6336
HEad  19.1675 -6.71197 -5.3236
LeftShoulder1  0.924263 0.286899 -24.6631
LeftArm  -5.42008 9.44925 -49.326
LeftForeArm  34.5583 5.73903 -11.6481
LeftHand  -0.0389378 4.90759 3.86644
RightShoulder  2.06369 2.7766 27.9968
RightArm  -27.9414 8.77231 52.6824
RightForeArm  80.589 -4.4224 0.857982
RightHand  0.356659 -8.26643 -15.2443
LeftUpLeg  -26.793 -3.81427 -3.14582
LeftLeg  1.68912 11.3735 1.75591
LeftFoot  1.71813 0.306655 -2.77047
LeftToes  1.09107e-011 -1.16422e-010 2.98337e-011
1619
root  -24.5085 39.1291 -65.2853 7.69904 5.18234 3.23871
RightUpLeg  4.07724 -2.97876 0.0352265
RightLeg  10.8316 -0.148159 -0.704756
RightFoot  -19.1055 -0.104414 0.366514
RightToes  -1.33073e-015 0 -3.6325e-017
Spine  -7.33827 1.99114 2.80494
Spine1  10.904 2.92393 -3.81684
HEad  19.1674 -6.80069 -4.9286
LeftShoulder1  0.902028 0.367037 -24.7448
LeftArm  -5.34352 10.4779 -48.6131
LeftForeArm  34.4411 6.63293 -11.7196
LeftHand  -0.0336765 5.07272 3.53305
RightShoulder  2.0724 2.84855 27.7344
RightArm  -27.4892 9.1144 53.6987
RightForeArm  79.8559 -4.50162 1.13906
RightHand  0.317857 -7.90751 -15.5713
LeftUpLeg  -26.7539 -3.73476 -3.30088
LeftLeg  0.0501233 12.5572 1.34118
LeftFoot  -1.0599 0.26114 -2.83228
LeftToes  1.09107e-011 -1.16422e-010 2.98337e-011
